<svg xmlns="http://www.w3.org/2000/svg" width="195" height="51" viewBox="0 0 195 51" fill="none"><g clip-path="url(#clip0_4_3)"><path d="M102.193 19.845C102.194 19.9012 102.184 19.9572 102.163 20.0094C102.142 20.0616 102.11 20.109 102.07 20.1488C102.031 20.1886 101.983 20.2199 101.931 20.2409C101.879 20.2619 101.823 20.2721 101.766 20.271H101.71C101.79 20.0186 101.937 19.7928 102.136 19.6178C102.171 19.6884 102.191 19.7659 102.193 19.845Z" fill="url(#paint0_linear_4_3)"></path><path d="M104.72 19.845C104.72 19.9685 104.684 20.0893 104.615 20.1921C104.546 20.2949 104.449 20.3749 104.335 20.4222C104.22 20.4695 104.095 20.4819 103.974 20.4578C103.852 20.4337 103.741 20.3742 103.654 20.2868C103.566 20.1995 103.507 20.088 103.483 19.9668C103.459 19.8456 103.471 19.72 103.518 19.6058C103.566 19.4916 103.646 19.3941 103.748 19.3254C103.851 19.2567 103.972 19.2201 104.096 19.2201C104.183 19.2254 104.269 19.2445 104.351 19.2769C104.408 19.3053 104.436 19.3337 104.493 19.3621C104.565 19.42 104.623 19.4936 104.663 19.5773C104.702 19.661 104.722 19.7525 104.72 19.845Z" fill="url(#paint1_linear_4_3)"></path><path d="M105.317 20.8958C105.317 21.3892 105.121 21.8624 104.772 22.2113C104.423 22.5602 103.95 22.7562 103.457 22.7562C102.963 22.7562 102.49 22.5602 102.141 22.2113C101.792 21.8624 101.596 21.3892 101.596 20.8958C101.597 20.7219 101.626 20.5493 101.681 20.3846C101.693 20.3953 101.706 20.4034 101.721 20.4083C101.736 20.4132 101.751 20.4149 101.767 20.413C101.917 20.413 102.062 20.3531 102.168 20.2466C102.275 20.1401 102.335 19.9956 102.335 19.8449C102.336 19.7217 102.296 19.6016 102.221 19.5041C102.558 19.1848 103.007 19.0112 103.471 19.0212C103.336 19.1112 103.226 19.234 103.151 19.3781C103.077 19.5222 103.04 19.6828 103.045 19.8449C103.044 19.983 103.071 20.1199 103.124 20.2475C103.177 20.3752 103.254 20.4912 103.352 20.5889C103.449 20.6865 103.565 20.7639 103.693 20.8166C103.821 20.8693 103.958 20.8962 104.096 20.8958C104.338 20.8915 104.571 20.8048 104.757 20.6498C104.943 20.4949 105.07 20.281 105.118 20.0438C105.244 20.3106 105.312 20.6009 105.317 20.8958Z" fill="url(#paint2_linear_4_3)"></path><path d="M8.39025 17.4165C8.39025 17.4165 8.39025 17.4166 8.39025 17.4393L8.43567 17.5529C8.50384 17.7204 8.5748 17.8909 8.62593 18.05C8.93728 18.6264 9.0835 19.2776 9.0484 19.9318C9.01329 20.5861 8.79825 21.218 8.427 21.7578C8.05575 22.2976 7.54273 22.7245 6.94438 22.9914C6.34602 23.2583 5.68561 23.3548 5.0359 23.2703C4.89449 23.254 4.75214 23.2465 4.60979 23.2476H4.56151C4.30785 23.247 4.05478 23.2717 3.80603 23.3215C5.60818 26.2095 8.45812 28.2879 11.7587 29.1213C11.6708 28.9689 11.5939 28.8104 11.5287 28.647C11.2823 28.0818 11.1151 27.4855 11.0317 26.8747C10.9426 26.3877 10.963 25.8871 11.0915 25.4091C11.22 24.9311 11.4532 24.4876 11.7744 24.1109C12.0956 23.7343 12.4966 23.4339 12.9483 23.2315C13.4 23.0291 13.8912 22.9298 14.386 22.9409C14.8419 22.9021 15.3006 22.9097 15.755 22.9636C15.9296 22.9832 16.103 23.0116 16.2747 23.0488C14.5019 20.0935 11.6402 17.9519 8.30496 17.0843L8.39025 17.4165Z" fill="url(#paint3_linear_4_3)"></path><path d="M32.1888 48.3755C31.4591 49.358 30.369 50.0104 29.1584 50.1894C27.9477 50.3684 26.7156 50.0592 25.7329 49.3298L1.85197 31.5753C1.13119 31.0368 0.583604 30.2993 0.276686 29.4535C-0.0302314 28.6078 -0.0831191 27.6907 0.124567 26.8153C0.332252 25.9399 0.791416 25.1443 1.44554 24.5266C2.09966 23.9088 2.92018 23.4959 3.80604 23.3386C4.05478 23.2888 4.30785 23.2641 4.56152 23.2647H4.6098C4.75214 23.2635 4.8945 23.2711 5.03591 23.2874C5.87472 23.3626 6.67606 23.6693 7.35064 24.1735L11.009 26.8917L31.2316 41.928C31.7183 42.2881 32.1293 42.7407 32.4409 43.2597C32.7525 43.7788 32.9586 44.3543 33.0475 44.9532C33.1364 45.5521 33.1063 46.1626 32.9589 46.7498C32.8116 47.3371 32.5499 47.8895 32.1888 48.3755Z" fill="url(#paint4_linear_4_3)"></path><path d="M28.6754 27.8375C28.3144 28.3239 27.8611 28.7344 27.3414 29.0456C26.8217 29.3568 26.2457 29.5625 25.6465 29.6511C25.0473 29.7398 24.4365 29.7095 23.849 29.562C23.2614 29.4146 22.7087 29.1529 22.2224 28.7918L10.0348 19.7456C9.31276 19.2078 8.76407 18.4704 8.45636 17.6243C8.14864 16.7783 8.09538 15.8606 8.3032 14.9846C8.51101 14.1087 8.97076 13.3127 9.62573 12.695C10.2807 12.0774 11.1023 11.665 11.9889 11.5088C12.2374 11.4568 12.4906 11.4311 12.7444 11.4321H12.7927C12.935 11.4324 13.0772 11.44 13.2187 11.4548C14.0571 11.5319 14.858 11.8386 15.5335 12.341L19.1918 15.062L27.7125 21.3873C28.2001 21.7469 28.6119 22.1993 28.9243 22.7185C29.2367 23.2376 29.4435 23.8133 29.533 24.4125C29.6224 25.0117 29.5927 25.6227 29.4456 26.2105C29.2984 26.7982 29.0367 27.3511 28.6754 27.8375Z" fill="url(#paint5_linear_4_3)"></path><path d="M17.1681 2.12346L17.1664 2.12575C15.6457 4.17144 16.0712 7.06262 18.1169 8.58338L21.7161 11.259C23.7618 12.7798 26.653 12.3543 28.1737 10.3086L28.1754 10.3063C29.6962 8.26057 29.2707 5.3694 27.225 3.84864L23.6257 1.17299C21.5801 -0.347772 18.6889 0.0777681 17.1681 2.12346Z" fill="url(#paint6_linear_4_3)"></path><path d="M43.649 28.6356V7.75964H57.8504V11.7985H48.1935V16.0419H56.4786V20.0807H48.1935V24.5939H57.8504V28.6327L43.649 28.6356Z" fill="#282828"></path><path d="M64.7297 28.6356L59.5859 12.9374H63.9514L65.897 19.2741L67.3626 24.9546H67.6011L69.0667 19.2741L70.9498 12.9374H75.1364L69.9927 28.6356H64.7297Z" fill="#282828"></path><path d="M83.4214 28.9935C82.3619 29.0113 81.3096 28.8182 80.3255 28.4254C79.4409 28.0626 78.6524 27.4997 78.022 26.7809C77.3714 26.0183 76.879 25.134 76.5735 24.1792C75.8956 21.9576 75.8956 19.5843 76.5735 17.3626C76.8771 16.4114 77.3698 15.5313 78.022 14.7751C78.657 14.0649 79.4445 13.5075 80.3255 13.1448C82.3199 12.3873 84.5228 12.3873 86.5172 13.1448C87.3983 13.5058 88.1852 14.0635 88.8178 14.7751C89.474 15.5289 89.968 16.4097 90.2692 17.3626C90.947 19.5843 90.947 21.9576 90.2692 24.1792C89.9661 25.1356 89.4724 26.0206 88.8178 26.7809C88.1896 27.5009 87.4018 28.0641 86.5172 28.4254C85.5331 28.8179 84.4807 29.011 83.4214 28.9935ZM83.4214 25.4943C83.7987 25.5173 84.1766 25.457 84.5281 25.3176C84.8795 25.1782 85.196 24.9631 85.455 24.6876C85.9722 24.0368 86.2284 23.2165 86.1735 22.387V19.1861C86.2283 18.3557 85.9722 17.5346 85.455 16.8826C84.9045 16.3648 84.1771 16.0764 83.4214 16.0764C82.6656 16.0764 81.9382 16.3648 81.3877 16.8826C80.8717 17.5352 80.6158 18.3558 80.6692 19.1861V22.387C80.6157 23.2164 80.8717 24.0361 81.3877 24.6876C81.6467 24.9631 81.9632 25.1782 82.3146 25.3176C82.6661 25.457 83.044 25.5173 83.4214 25.4943Z" fill="#282828"></path><path d="M98.1338 28.6356C97.5434 28.7275 96.9397 28.6805 96.3706 28.498C95.8016 28.3156 95.283 28.0029 94.8561 27.5848C94.4292 27.1667 94.1058 26.6548 93.9115 26.0897C93.7172 25.5246 93.6575 24.922 93.7371 24.3298V6.50714H98.1594V25.196H100.148V28.6356H98.1338Z" fill="#282828"></path><path d="M124.656 28.9935C123.562 29.017 122.474 28.8239 121.455 28.4254C120.552 28.0593 119.741 27.4976 119.081 26.7808C118.411 26.0344 117.911 25.1517 117.615 24.1934C117.273 23.0902 117.106 21.94 117.121 20.7851C117.108 19.6452 117.27 18.5101 117.601 17.4193C117.888 16.4679 118.372 15.5874 119.021 14.8347C119.655 14.1114 120.447 13.5439 121.336 13.176C122.333 12.7705 123.401 12.5714 124.477 12.591C125.624 12.56 126.763 12.785 127.812 13.2499C128.695 13.6544 129.473 14.2581 130.084 15.0137C130.68 15.7703 131.117 16.6399 131.368 17.5699C131.639 18.5591 131.774 19.5805 131.771 20.6062V21.9211H121.694V22.1598C121.644 22.6223 121.7 23.0901 121.858 23.5275C122.016 23.965 122.273 24.3605 122.607 24.6837C122.942 25.0068 123.346 25.2491 123.789 25.3921C124.232 25.535 124.701 25.5748 125.162 25.5084C125.946 25.5425 126.725 25.3524 127.405 24.9602C127.994 24.5863 128.535 24.144 129.019 23.6424L131.234 26.4003C130.49 27.2513 129.55 27.9091 128.496 28.3175C127.272 28.7901 125.968 29.0198 124.656 28.9935ZM124.568 15.8345C124.173 15.815 123.779 15.8842 123.414 16.037C123.049 16.1899 122.724 16.4225 122.461 16.7178C121.926 17.3801 121.654 18.2164 121.697 19.0668V19.3053H127.198V19.0355C127.237 18.2142 127.012 17.4021 126.556 16.7178C126.323 16.4181 126.02 16.1807 125.673 16.0266C125.326 15.8725 124.947 15.8066 124.568 15.8345Z" fill="#282828"></path><path d="M143.252 11.0743V29.7333H140.74V11.0743H134.102V8.86151H149.89V11.0743H143.252ZM156.942 30.0921C155.886 30.0921 154.929 29.9028 154.072 29.524C153.234 29.1452 152.507 28.607 151.889 27.9093C151.291 27.1916 150.822 26.3444 150.483 25.3676C150.164 24.3708 150.005 23.2545 150.005 22.0185C150.005 20.8025 150.164 19.6961 150.483 18.6994C150.822 17.7026 151.291 16.8554 151.889 16.1577C152.507 15.44 153.234 14.8918 154.072 14.513C154.929 14.1343 155.886 13.9449 156.942 13.9449C157.979 13.9449 158.906 14.1343 159.723 14.513C160.541 14.8918 161.238 15.4201 161.816 16.0979C162.394 16.7557 162.833 17.5431 163.132 18.4601C163.451 19.3771 163.61 20.3839 163.61 21.4803V22.6166H152.517V23.3342C152.517 23.9921 152.616 24.61 152.816 25.1882C153.035 25.7463 153.334 26.2347 153.713 26.6534C154.112 27.072 154.59 27.4009 155.148 27.6401C155.726 27.8794 156.374 27.999 157.092 27.999C158.069 27.999 158.916 27.7697 159.633 27.3112C160.371 26.8527 160.939 26.1949 161.338 25.3377L163.042 26.5637C162.544 27.6202 161.766 28.4774 160.71 29.1353C159.653 29.7732 158.398 30.0921 156.942 30.0921ZM156.942 15.9484C156.284 15.9484 155.686 16.068 155.148 16.3072C154.61 16.5265 154.141 16.8454 153.743 17.2641C153.364 17.6827 153.065 18.1811 152.846 18.7592C152.626 19.3173 152.517 19.9353 152.517 20.6131V20.8224H161.039V20.4935C161.039 19.118 160.66 18.0216 159.903 17.2042C159.165 16.367 158.178 15.9484 156.942 15.9484ZM173.294 30.0921C172.217 30.0921 171.25 29.9028 170.393 29.524C169.536 29.1452 168.808 28.607 168.21 27.9093C167.632 27.2115 167.184 26.3643 166.865 25.3676C166.566 24.3708 166.416 23.2545 166.416 22.0185C166.416 20.7826 166.566 19.6662 166.865 18.6695C167.184 17.6727 167.632 16.8255 168.21 16.1278C168.808 15.43 169.536 14.8918 170.393 14.513C171.25 14.1343 172.217 13.9449 173.294 13.9449C174.829 13.9449 176.055 14.2838 176.972 14.9616C177.909 15.6194 178.606 16.4866 179.065 17.5631L177.061 18.5798C176.782 17.7824 176.324 17.1644 175.686 16.7258C175.048 16.2872 174.251 16.068 173.294 16.068C172.576 16.068 171.948 16.1876 171.41 16.4268C170.872 16.6461 170.423 16.965 170.064 17.3837C169.705 17.7824 169.436 18.2708 169.257 18.8489C169.077 19.4071 168.988 20.025 168.988 20.7028V23.3342C168.988 24.6898 169.347 25.8061 170.064 26.6833C170.802 27.5405 171.878 27.9691 173.294 27.9691C175.227 27.9691 176.623 27.072 177.48 25.2779L179.214 26.4441C178.716 27.5604 177.968 28.4475 176.972 29.1054C175.995 29.7632 174.769 30.0921 173.294 30.0921ZM182.591 7.60562H184.983V16.8155H185.103C185.482 15.9384 186.01 15.2407 186.688 14.7224C187.386 14.2041 188.312 13.9449 189.469 13.9449C191.063 13.9449 192.319 14.4632 193.236 15.4998C194.173 16.5165 194.642 17.9618 194.642 19.8357V29.7333H192.25V20.2543C192.25 17.4833 191.083 16.0979 188.751 16.0979C188.273 16.0979 187.804 16.1577 187.346 16.2773C186.907 16.3969 186.508 16.5763 186.15 16.8155C185.791 17.0547 185.502 17.3637 185.282 17.7425C185.083 18.1013 184.983 18.5299 184.983 19.0283V29.7333H182.591V7.60562Z" fill="#4DBDE4"></path><path d="M44.825 44.0103V43.0162H46.2167V35.0919H44.825V34.0978H48.8013V35.0919H47.4096V43.0162H48.8013V44.0103H44.825ZM57.4981 37.9605L56.3052 35.7593H56.2626V44.0103H55.0981V34.0978H56.4756L60.0969 40.1475L61.2898 42.3487H61.3325V34.0978H62.497V44.0103H61.1194L57.4981 37.9605ZM71.6572 37.9605L70.4643 35.7593H70.4217V44.0103H69.2572V34.0978H70.6348L74.2561 40.1475L75.449 42.3487H75.4916V34.0978H76.6561V44.0103H75.2786L71.6572 37.9605ZM87.1229 44.1807C86.4791 44.1807 85.8969 44.0718 85.3762 43.8541C84.8649 43.6268 84.4247 43.3002 84.0554 42.8742C83.6957 42.4387 83.4164 41.9038 83.2176 41.2694C83.0187 40.6256 82.9193 39.8872 82.9193 39.054C82.9193 38.2209 83.0187 37.4871 83.2176 36.8528C83.4164 36.2185 83.6957 35.6836 84.0554 35.2481C84.4247 34.8126 84.8649 34.4859 85.3762 34.2682C85.8969 34.041 86.4791 33.9274 87.1229 33.9274C87.7572 33.9274 88.3348 34.041 88.8555 34.2682C89.3762 34.4859 89.8164 34.8126 90.1762 35.2481C90.5454 35.6836 90.8295 36.2185 91.0283 36.8528C91.2271 37.4871 91.3265 38.2209 91.3265 39.054C91.3265 39.8872 91.2271 40.6256 91.0283 41.2694C90.8295 41.9038 90.5454 42.4387 90.1762 42.8742C89.8164 43.3002 89.3762 43.6268 88.8555 43.8541C88.3348 44.0718 87.7572 44.1807 87.1229 44.1807ZM87.1229 43.1156C87.549 43.1156 87.9419 43.0399 88.3016 42.8884C88.6614 42.7369 88.9691 42.5191 89.2247 42.2351C89.4898 41.9511 89.6934 41.6103 89.8354 41.2126C89.9774 40.815 90.0484 40.37 90.0484 39.8777V38.2304C90.0484 37.738 89.9774 37.2931 89.8354 36.8954C89.6934 36.4978 89.4898 36.157 89.2247 35.8729C88.9691 35.5889 88.6614 35.3712 88.3016 35.2197C87.9419 35.0682 87.549 34.9925 87.1229 34.9925C86.6969 34.9925 86.304 35.0682 85.9442 35.2197C85.5844 35.3712 85.272 35.5889 85.0069 35.8729C84.7513 36.157 84.5525 36.4978 84.4105 36.8954C84.2685 37.2931 84.1975 37.738 84.1975 38.2304V39.8777C84.1975 40.37 84.2685 40.815 84.4105 41.2126C84.5525 41.6103 84.7513 41.9511 85.0069 42.2351C85.272 42.5191 85.5844 42.7369 85.9442 42.8884C86.304 43.0399 86.6969 43.1156 87.1229 43.1156ZM99.681 44.0103L96.3863 34.0978H97.6644L99.2976 39.0966L100.391 42.8174H100.462L101.584 39.0966L103.231 34.0978H104.467L101.13 44.0103H99.681ZM115.819 44.0103L114.825 41.0848H110.82L109.826 44.0103H108.619L112.084 34.0978H113.603L117.068 44.0103H115.819ZM112.851 35.2055H112.78L111.104 40.0339H114.526L112.851 35.2055ZM125.237 35.1487V44.0103H124.044V35.1487H120.891V34.0978H128.39V35.1487H125.237ZM133.579 44.0103V43.0162H134.971V35.0919H133.579V34.0978H137.556V35.0919H136.164V43.0162H137.556V44.0103H133.579ZM147.559 44.1807C146.915 44.1807 146.333 44.0718 145.812 43.8541C145.301 43.6268 144.861 43.3002 144.491 42.8742C144.132 42.4387 143.852 41.9038 143.654 41.2694C143.455 40.6256 143.355 39.8872 143.355 39.054C143.355 38.2209 143.455 37.4871 143.654 36.8528C143.852 36.2185 144.132 35.6836 144.491 35.2481C144.861 34.8126 145.301 34.4859 145.812 34.2682C146.333 34.041 146.915 33.9274 147.559 33.9274C148.193 33.9274 148.771 34.041 149.291 34.2682C149.812 34.4859 150.252 34.8126 150.612 35.2481C150.981 35.6836 151.265 36.2185 151.464 36.8528C151.663 37.4871 151.763 38.2209 151.763 39.054C151.763 39.8872 151.663 40.6256 151.464 41.2694C151.265 41.9038 150.981 42.4387 150.612 42.8742C150.252 43.3002 149.812 43.6268 149.291 43.8541C148.771 44.0718 148.193 44.1807 147.559 44.1807ZM147.559 43.1156C147.985 43.1156 148.378 43.0399 148.738 42.8884C149.097 42.7369 149.405 42.5191 149.661 42.2351C149.926 41.9511 150.129 41.6103 150.271 41.2126C150.413 40.815 150.484 40.37 150.484 39.8777V38.2304C150.484 37.738 150.413 37.2931 150.271 36.8954C150.129 36.4978 149.926 36.157 149.661 35.8729C149.405 35.5889 149.097 35.3712 148.738 35.2197C148.378 35.0682 147.985 34.9925 147.559 34.9925C147.133 34.9925 146.74 35.0682 146.38 35.2197C146.02 35.3712 145.708 35.5889 145.443 35.8729C145.187 36.157 144.988 36.4978 144.846 36.8954C144.704 37.2931 144.633 37.738 144.633 38.2304V39.8777C144.633 40.37 144.704 40.815 144.846 41.2126C144.988 41.6103 145.187 41.9511 145.443 42.2351C145.708 42.5191 146.02 42.7369 146.38 42.8884C146.74 43.0399 147.133 43.1156 147.559 43.1156ZM160.425 37.9605L159.233 35.7593H159.19V44.0103H158.025V34.0978H159.403L163.024 40.1475L164.217 42.3487H164.26V34.0978H165.424V44.0103H164.047L160.425 37.9605ZM174.968 44.1807C174.163 44.1807 173.477 44.0292 172.909 43.7263C172.341 43.4138 171.858 42.9878 171.46 42.4481L172.341 41.7097C172.691 42.1736 173.079 42.5286 173.505 42.7748C173.931 43.0115 174.433 43.1298 175.011 43.1298C175.721 43.1298 176.26 42.9594 176.63 42.6186C177.008 42.2777 177.198 41.8233 177.198 41.2552C177.198 40.7819 177.056 40.4174 176.772 40.1617C176.488 39.9061 176.019 39.7026 175.366 39.5511L174.556 39.3665C173.647 39.1582 172.951 38.8457 172.469 38.4292C171.995 38.0031 171.759 37.4067 171.759 36.6398C171.759 36.2043 171.839 35.8161 172 35.4753C172.161 35.1345 172.383 34.8504 172.667 34.6232C172.961 34.396 173.306 34.2256 173.704 34.112C174.111 33.9889 174.556 33.9274 175.039 33.9274C175.787 33.9274 176.426 34.0646 176.956 34.3392C177.496 34.6137 177.95 35.0161 178.32 35.5463L177.425 36.1996C177.15 35.8209 176.819 35.5226 176.431 35.3049C176.043 35.0871 175.56 34.9782 174.982 34.9782C174.348 34.9782 173.846 35.1155 173.477 35.3901C173.117 35.6552 172.937 36.0575 172.937 36.5972C172.937 37.0706 173.089 37.4303 173.392 37.6765C173.704 37.9132 174.173 38.1025 174.798 38.2446L175.607 38.4292C176.582 38.6469 177.288 38.9783 177.723 39.4233C178.159 39.8682 178.376 40.46 178.376 41.1984C178.376 41.6529 178.296 42.0647 178.135 42.4339C177.983 42.8032 177.761 43.1156 177.467 43.3712C177.174 43.6268 176.814 43.8257 176.388 43.9677C175.972 44.1097 175.498 44.1807 174.968 44.1807Z" fill="#282828"></path><path d="M109.094 28.6498H104.664L102.988 23.4237C103.147 23.4566 103.308 23.4756 103.471 23.4805C103.809 23.4805 104.144 23.4135 104.456 23.2832C104.768 23.153 105.051 22.9622 105.288 22.7218C105.526 22.4814 105.714 22.1963 105.841 21.8829C105.967 21.5694 106.031 21.2339 106.027 20.8959C106.038 20.7607 106.019 20.6249 105.97 20.4983C106.384 20.7401 106.697 21.1234 106.851 21.5776L107.845 24.7018L109.094 28.6498Z" fill="#4DD3A0"></path><path opacity="0.7" d="M116.195 12.5256L110.997 28.6356H106.567L107.85 24.6933L110.906 15.2466C111.177 14.3962 111.71 13.6537 112.43 13.1263C113.15 12.599 114.019 12.314 114.911 12.3126C115.347 12.3238 115.779 12.3955 116.195 12.5256Z" fill="#00A4CC"></path><path d="M104.72 19.845C104.72 19.9685 104.684 20.0893 104.615 20.1921C104.546 20.2949 104.449 20.3749 104.335 20.4222C104.22 20.4695 104.095 20.4819 103.974 20.4578C103.852 20.4337 103.741 20.3742 103.654 20.2868C103.566 20.1995 103.507 20.088 103.483 19.9668C103.459 19.8456 103.471 19.72 103.518 19.6058C103.566 19.4916 103.646 19.3941 103.748 19.3254C103.851 19.2567 103.972 19.2201 104.096 19.2201C104.183 19.2254 104.269 19.2445 104.351 19.2769C104.408 19.3053 104.436 19.3337 104.493 19.3621C104.565 19.42 104.623 19.4936 104.663 19.5773C104.702 19.661 104.722 19.7525 104.72 19.845Z" fill="url(#paint7_linear_4_3)"></path><path d="M102.193 19.845C102.194 19.9013 102.184 19.9572 102.163 20.0095C102.142 20.0617 102.11 20.109 102.07 20.1488C102.031 20.1886 101.983 20.22 101.931 20.241C101.879 20.262 101.823 20.2722 101.767 20.2711H101.71C101.609 20.252 101.518 20.1995 101.451 20.1222C101.384 20.0449 101.345 19.9472 101.34 19.845C101.337 19.7285 101.38 19.6154 101.46 19.5303C101.54 19.4452 101.65 19.395 101.767 19.3906C101.844 19.3864 101.921 19.4059 101.987 19.4465C102.053 19.4871 102.105 19.5469 102.136 19.6178C102.171 19.6884 102.191 19.766 102.193 19.845Z" fill="url(#paint8_linear_4_3)"></path></g><defs><linearGradient id="paint0_linear_4_3" x1="101.71" y1="19.9444" x2="102.193" y2="19.9444" gradientUnits="userSpaceOnUse"><stop stop-color="#4DD3A0"></stop><stop offset="1" stop-color="#00A4CC"></stop></linearGradient><linearGradient id="paint1_linear_4_3" x1="103.471" y1="19.8449" x2="104.72" y2="19.8449" gradientUnits="userSpaceOnUse"><stop stop-color="#4DD3A0"></stop><stop offset="1" stop-color="#00A4CC"></stop></linearGradient><linearGradient id="paint2_linear_4_3" x1="101.596" y1="20.8958" x2="105.317" y2="20.8958" gradientUnits="userSpaceOnUse"><stop stop-color="#4DD3A0"></stop><stop offset="1" stop-color="#00A4CC"></stop></linearGradient><linearGradient id="paint3_linear_4_3" x1="3.81455" y1="23.1255" x2="16.2691" y2="23.1255" gradientUnits="userSpaceOnUse"><stop stop-color="#00A4CC"></stop><stop offset="1" stop-color="#4DD3A0"></stop></linearGradient><linearGradient id="paint4_linear_4_3" x1="8.92123e-05" y1="36.7588" x2="33.1147" y2="36.7588" gradientUnits="userSpaceOnUse"><stop stop-color="#00A4CC"></stop><stop offset="1" stop-color="#4DD3A0"></stop></linearGradient><linearGradient id="paint5_linear_4_3" x1="8.18577" y1="20.5636" x2="29.5928" y2="20.5636" gradientUnits="userSpaceOnUse"><stop stop-color="#00A4CC"></stop><stop offset="1" stop-color="#4DD3A0"></stop></linearGradient><linearGradient id="paint6_linear_4_3" x1="16.2645" y1="6.20997" x2="29.094" y2="6.20997" gradientUnits="userSpaceOnUse"><stop stop-color="#00A4CC"></stop><stop offset="1" stop-color="#4DD3A0"></stop></linearGradient><linearGradient id="paint7_linear_4_3" x1="104.374" y1="19.3479" x2="103.84" y2="20.3022" gradientUnits="userSpaceOnUse"><stop stop-color="#00A0D8"></stop><stop offset="1" stop-color="#4DD3A0"></stop></linearGradient><linearGradient id="paint8_linear_4_3" x1="102.102" y1="20.0467" x2="101.539" y2="19.6746" gradientUnits="userSpaceOnUse"><stop stop-color="#00A0D8"></stop><stop offset="1" stop-color="#4DD3A0"></stop></linearGradient><clipPath id="clip0_4_3"><rect width="194.657" height="50" fill="white" transform="translate(0 0.25)"></rect></clipPath></defs></svg>