<svg width="31" height="48" viewBox="0 0 31 48" fill="none" xmlns="http://www.w3.org/2000/svg">
<path d="M7.76365 17.5779C7.76365 17.5779 7.76365 17.578 7.76365 17.599L7.80567 17.7041C7.86875 17.8591 7.93441 18.0169 7.98172 18.164C8.26981 18.6974 8.4051 19.2999 8.37262 19.9053C8.34014 20.5106 8.14116 21.0953 7.79765 21.5948C7.45415 22.0943 6.97946 22.4893 6.42581 22.7362C5.87217 22.9832 5.26111 23.0725 4.65995 22.9943C4.5291 22.9792 4.39739 22.9722 4.26568 22.9733H4.22101C3.98629 22.9727 3.75213 22.9956 3.52197 23.0416C5.18946 25.7139 7.82645 27.637 10.8804 28.408C10.799 28.267 10.7279 28.1204 10.6676 27.9692C10.4396 27.4463 10.2849 26.8945 10.2077 26.3293C10.1253 25.8788 10.1442 25.4156 10.263 24.9733C10.3819 24.531 10.5978 24.1206 10.8949 23.7721C11.1921 23.4236 11.5631 23.1456 11.9811 22.9584C12.3991 22.7711 12.8535 22.6793 13.3114 22.6895C13.7333 22.6536 14.1577 22.6606 14.5781 22.7105C14.7396 22.7286 14.9001 22.755 15.059 22.7893C13.4186 20.0548 10.7708 18.0733 7.68473 17.2705L7.76365 17.5779Z" fill="url(#paint0_linear_2666_292)"/>
<path d="M29.7836 46.2238C29.1084 47.1329 28.0998 47.7366 26.9796 47.9022C25.8594 48.0678 24.7193 47.7817 23.81 47.1068L1.71359 30.679C1.04666 30.1807 0.539996 29.4983 0.256012 28.7157C-0.0279724 27.9332 -0.0769082 27.0847 0.115259 26.2746C0.307426 25.4646 0.73228 24.7285 1.33752 24.1569C1.94277 23.5853 2.70198 23.2033 3.52164 23.0577C3.7518 23.0117 3.98596 22.9888 4.22067 22.9894H4.26535C4.39705 22.9883 4.52877 22.9953 4.65961 23.0104C5.43575 23.0799 6.17721 23.3638 6.80139 23.8303L10.1864 26.3453L28.8979 40.2581C29.3483 40.5913 29.7285 41.01 30.0168 41.4903C30.3051 41.9706 30.4959 42.5031 30.5781 43.0572C30.6604 43.6114 30.6325 44.1763 30.4962 44.7196C30.3598 45.263 30.1177 45.7742 29.7836 46.2238Z" fill="url(#paint1_linear_2666_292)"/>
<path d="M26.5326 27.2196C26.1985 27.6696 25.779 28.0495 25.2982 28.3374C24.8173 28.6254 24.2844 28.8157 23.7299 28.8977C23.1755 28.9797 22.6103 28.9517 22.0667 28.8153C21.5231 28.6788 21.0117 28.4367 20.5617 28.1026L9.28474 19.7323C8.61669 19.2347 8.109 18.5524 7.82428 17.7696C7.53956 16.9867 7.49028 16.1376 7.68257 15.3271C7.87485 14.5166 8.30024 13.7801 8.90628 13.2086C9.51231 12.6371 10.2725 12.2555 11.0929 12.111C11.3228 12.0629 11.557 12.0391 11.7919 12.0401H11.8366C11.9683 12.0403 12.0998 12.0473 12.2308 12.0611C13.0065 12.1324 13.7476 12.4161 14.3726 12.8811L17.7575 15.3987L25.6416 21.2513C26.0927 21.5841 26.4738 22.0027 26.7628 22.4831C27.0519 22.9634 27.2432 23.4961 27.326 24.0505C27.4088 24.605 27.3813 25.1703 27.2451 25.7141C27.109 26.2579 26.8668 26.7695 26.5326 27.2196Z" fill="url(#paint2_linear_2666_292)"/>
<path d="M15.8849 3.42705L15.8833 3.42917C14.4761 5.322 14.8699 7.99715 16.7627 9.40427L20.093 11.88C21.9858 13.2871 24.661 12.8934 26.0681 11.0005L26.0697 10.9984C27.4768 9.10558 27.0831 6.43044 25.1902 5.02332L21.8599 2.5476C19.9671 1.14047 17.292 1.53422 15.8849 3.42705Z" fill="url(#paint3_linear_2666_292)"/>
<defs>
<linearGradient id="paint0_linear_2666_292" x1="3.52986" y1="22.8603" x2="15.0537" y2="22.8603" gradientUnits="userSpaceOnUse">
<stop stop-color="#00A4CC"/>
<stop offset="1" stop-color="#4DD3A0"/>
</linearGradient>
<linearGradient id="paint1_linear_2666_292" x1="8.25461e-05" y1="35.4752" x2="30.6403" y2="35.4752" gradientUnits="userSpaceOnUse">
<stop stop-color="#00A4CC"/>
<stop offset="1" stop-color="#4DD3A0"/>
</linearGradient>
<linearGradient id="paint2_linear_2666_292" x1="7.57391" y1="20.4892" x2="27.3814" y2="20.4892" gradientUnits="userSpaceOnUse">
<stop stop-color="#00A4CC"/>
<stop offset="1" stop-color="#4DD3A0"/>
</linearGradient>
<linearGradient id="paint3_linear_2666_292" x1="15.0487" y1="7.2082" x2="26.9196" y2="7.2082" gradientUnits="userSpaceOnUse">
<stop stop-color="#00A4CC"/>
<stop offset="1" stop-color="#4DD3A0"/>
</linearGradient>
</defs>
</svg>
