<svg xmlns="http://www.w3.org/2000/svg" width="181" height="47" viewBox="0 0 181 47" fill="none"><g clip-path="url(#clip0_23_30)"><path d="M95.4442 18.7908C95.4453 18.8428 95.4359 18.8946 95.4165 18.9429C95.3971 18.9912 95.3681 19.0351 95.3312 19.0719C95.2944 19.1087 95.2505 19.1377 95.2022 19.1571C95.1539 19.1766 95.1021 19.186 95.0501 19.185H94.9975C95.0716 18.9514 95.2078 18.7425 95.3917 18.5806C95.4246 18.6459 95.4425 18.7177 95.4442 18.7908Z" fill="url(#paint0_linear_23_30)"></path><path d="M97.7834 18.7911C97.7834 18.9054 97.7495 19.0172 97.686 19.1123C97.6224 19.2073 97.5322 19.2814 97.4265 19.3252C97.3209 19.369 97.2046 19.3804 97.0925 19.3581C96.9803 19.3358 96.8773 19.2808 96.7965 19.1999C96.7156 19.1191 96.6605 19.016 96.6382 18.9038C96.6159 18.7917 96.6273 18.6754 96.6711 18.5698C96.7149 18.4641 96.789 18.3739 96.884 18.3103C96.9791 18.2468 97.0909 18.2129 97.2052 18.2129C97.2864 18.2178 97.3662 18.2355 97.4418 18.2654C97.4943 18.2917 97.5206 18.318 97.5732 18.3443C97.6399 18.3978 97.6935 18.466 97.7299 18.5434C97.7664 18.6208 97.7847 18.7055 97.7834 18.7911Z" fill="url(#paint1_linear_23_30)"></path><path d="M98.3356 19.7632C98.3356 20.2197 98.1543 20.6576 97.8315 20.9804C97.5087 21.3032 97.0708 21.4846 96.6143 21.4846C96.1577 21.4846 95.72 21.3032 95.3971 20.9804C95.0743 20.6576 94.8929 20.2197 94.8929 19.7632C94.8934 19.6023 94.9201 19.4426 94.9718 19.2902C94.9821 19.3001 94.9946 19.3076 95.0082 19.3122C95.0219 19.3167 95.0363 19.3182 95.0506 19.3165C95.19 19.3165 95.3237 19.2611 95.4222 19.1625C95.5208 19.0639 95.5762 18.9302 95.5762 18.7909C95.5778 18.6769 95.5407 18.5657 95.4711 18.4755C95.7826 18.18 96.1982 18.0195 96.6274 18.0287C96.5025 18.1119 96.4008 18.2256 96.3319 18.3589C96.2629 18.4922 96.229 18.6408 96.2332 18.7909C96.2329 18.9186 96.2578 19.0453 96.3065 19.1634C96.3553 19.2815 96.4269 19.3889 96.5172 19.4792C96.6076 19.5696 96.7149 19.6412 96.8331 19.6899C96.9512 19.7386 97.0778 19.7636 97.2056 19.7632C97.4295 19.7592 97.6454 19.679 97.8174 19.5356C97.9895 19.3922 98.1074 19.1944 98.1517 18.9748C98.2681 19.2217 98.3307 19.4904 98.3356 19.7632Z" fill="url(#paint2_linear_23_30)"></path><path d="M8.65149 16.5442C8.65149 16.5442 8.65149 16.5443 8.65149 16.5653L8.69352 16.6704C8.75659 16.8254 8.82225 16.9832 8.86956 17.1303C9.15765 17.6637 9.29294 18.2662 9.26046 18.8716C9.22798 19.4769 9.029 20.0616 8.68549 20.5611C8.34199 21.0606 7.8673 21.4556 7.31365 21.7025C6.76001 21.9495 6.14895 22.0388 5.54779 21.9606C5.41694 21.9455 5.28523 21.9385 5.15352 21.9396H5.10885C4.87413 21.939 4.63997 21.9619 4.40981 22.0079C6.0773 24.6802 8.71429 26.6033 11.7683 27.3744C11.6869 27.2333 11.6158 27.0867 11.5554 26.9355C11.3275 26.4126 11.1727 25.8608 11.0955 25.2956C11.0131 24.8451 11.032 24.3819 11.1509 23.9396C11.2697 23.4973 11.4856 23.0869 11.7828 22.7384C12.08 22.3899 12.451 22.1119 12.8689 21.9247C13.2869 21.7374 13.7414 21.6456 14.1992 21.6558C14.6211 21.6199 15.0455 21.6269 15.4659 21.6768C15.6275 21.6949 15.7879 21.7213 15.9468 21.7556C14.3065 19.0212 11.6586 17.0396 8.57257 16.2368L8.65149 16.5442Z" fill="url(#paint3_linear_23_30)"></path><path d="M30.6715 45.1901C29.9964 46.0992 28.9877 46.7029 27.8675 46.8685C26.7474 47.0341 25.6073 46.748 24.698 46.0731L2.60155 29.6453C1.93463 29.147 1.42796 28.4646 1.14397 27.682C0.85999 26.8995 0.811054 26.051 1.00322 25.241C1.19539 24.4309 1.62024 23.6948 2.22549 23.1232C2.83073 22.5516 3.58994 22.1696 4.4096 22.024C4.63976 21.978 4.87392 21.9551 5.10864 21.9557H5.15331C5.28502 21.9546 5.41673 21.9616 5.54758 21.9767C6.32371 22.0463 7.06517 22.3301 7.68935 22.7966L11.0743 25.3116L29.7859 39.2244C30.2362 39.5576 30.6164 39.9763 30.9048 40.4566C31.1931 40.937 31.3838 41.4694 31.4661 42.0235C31.5484 42.5777 31.5205 43.1426 31.3841 43.6859C31.2478 44.2293 31.0057 44.7405 30.6715 45.1901Z" fill="url(#paint4_linear_23_30)"></path><path d="M27.4205 26.1859C27.0864 26.6359 26.6669 27.0158 26.1861 27.3037C25.7052 27.5917 25.1723 27.782 24.6178 27.864C24.0634 27.946 23.4982 27.918 22.9546 27.7816C22.411 27.6452 21.8996 27.403 21.4496 27.0689L10.1726 18.6986C9.50459 18.201 8.9969 17.5187 8.71218 16.7359C8.42746 15.953 8.37818 15.1039 8.57047 14.2934C8.76276 13.4829 9.18815 12.7464 9.79418 12.1749C10.4002 11.6034 11.1604 11.2218 11.9808 11.0774C12.2107 11.0292 12.4449 11.0054 12.6798 11.0064H12.7245C12.8562 11.0066 12.9877 11.0136 13.1187 11.0274C13.8944 11.0987 14.6355 11.3824 15.2605 11.8474L18.6454 14.365L26.5295 20.2176C26.9806 20.5504 27.3617 20.969 27.6507 21.4494C27.9398 21.9297 28.1311 22.4624 28.2139 23.0168C28.2967 23.5713 28.2692 24.1366 28.133 24.6804C27.9969 25.2243 27.7547 25.7359 27.4205 26.1859Z" fill="url(#paint5_linear_23_30)"></path><path d="M16.7729 2.39336L16.7713 2.39548C15.3642 4.28831 15.7579 6.96345 17.6507 8.37058L20.981 10.8463C22.8738 12.2534 25.549 11.8597 26.9561 9.96685L26.9577 9.96472C28.3648 8.07189 27.9711 5.39675 26.0782 3.98962L22.748 1.51391C20.8551 0.106781 18.18 0.500524 16.7729 2.39336Z" fill="url(#paint6_linear_23_30)"></path><path d="M41.2756 26.9254V7.60938H54.4157V11.3464H45.4804V15.2728H53.1465V19.0098H45.4804V23.1857H54.4157V26.9228L41.2756 26.9254Z" fill="white"></path><path d="M60.781 26.9241L56.0217 12.3989H60.0609L61.8611 18.2621L63.2172 23.5182H63.4379L64.794 18.2621L66.5363 12.3989H70.4101L65.6508 26.9241H60.781Z" fill="white"></path><path d="M78.0761 27.256C77.0959 27.2725 76.1221 27.0938 75.2116 26.7304C74.3931 26.3947 73.6636 25.8738 73.0803 25.2087C72.4783 24.5031 72.0226 23.6849 71.7399 22.8015C71.1127 20.7459 71.1127 18.5499 71.7399 16.4942C72.0209 15.6141 72.4768 14.7997 73.0803 14.1001C73.6678 13.4429 74.3964 12.9272 75.2116 12.5916C77.057 11.8907 79.0953 11.8907 80.9407 12.5916C81.7559 12.9256 82.484 13.4416 83.0694 14.1001C83.6765 14.7976 84.1336 15.6125 84.4123 16.4942C85.0395 18.5499 85.0395 20.7459 84.4123 22.8015C84.1319 23.6864 83.6751 24.5053 83.0694 25.2087C82.4881 25.8749 81.7592 26.3961 80.9407 26.7304C80.0301 27.0935 79.0564 27.2722 78.0761 27.256ZM78.0761 24.0183C78.4253 24.0396 78.775 23.9838 79.1001 23.8548C79.4253 23.7258 79.7182 23.5268 79.9578 23.2719C80.4364 22.6697 80.6735 21.9107 80.6227 21.1432V18.1814C80.6734 17.4131 80.4364 16.6533 79.9578 16.0501C79.4484 15.5709 78.7755 15.3041 78.0761 15.3041C77.3768 15.3041 76.7038 15.5709 76.1945 16.0501C75.717 16.6539 75.4802 17.4132 75.5296 18.1814V21.1432C75.4801 21.9106 75.717 22.6691 76.1945 23.2719C76.4341 23.5268 76.7269 23.7258 77.0521 23.8548C77.3773 23.9838 77.7269 24.0396 78.0761 24.0183Z" fill="white"></path><path d="M91.6893 26.9247C91.143 27.0098 90.5843 26.9662 90.0578 26.7974C89.5313 26.6286 89.0515 26.3392 88.6565 25.9524C88.2615 25.5655 87.9622 25.0919 87.7824 24.569C87.6027 24.0461 87.5474 23.4886 87.6211 22.9406V6.44971H91.7129V23.7421H93.5526V26.9247H91.6893Z" fill="white"></path><path d="M116.23 27.2557C115.218 27.2774 114.211 27.0988 113.268 26.73C112.432 26.3913 111.682 25.8716 111.071 25.2084C110.451 24.5177 109.989 23.7009 109.715 22.8143C109.398 21.7935 109.244 20.7293 109.258 19.6606C109.246 18.6059 109.395 17.5557 109.702 16.5464C109.968 15.666 110.415 14.8513 111.016 14.1549C111.602 13.4857 112.335 12.9605 113.158 12.6201C114.08 12.2449 115.069 12.0607 116.064 12.0788C117.125 12.0501 118.179 12.2584 119.149 12.6885C119.967 13.0627 120.687 13.6213 121.252 14.3205C121.804 15.0206 122.208 15.8252 122.44 16.6857C122.69 17.601 122.816 18.5461 122.813 19.4951V20.7118H113.489V20.9326C113.442 21.3605 113.494 21.7934 113.641 22.1982C113.787 22.6029 114.024 22.9689 114.334 23.2679C114.644 23.5669 115.018 23.7911 115.427 23.9234C115.837 24.0556 116.271 24.0924 116.698 24.031C117.424 24.0626 118.144 23.8866 118.774 23.5238C119.318 23.1778 119.819 22.7685 120.266 22.3044L122.316 24.8563C121.628 25.6437 120.758 26.2523 119.783 26.6302C118.65 27.0675 117.444 27.28 116.23 27.2557ZM116.148 15.08C115.783 15.0619 115.418 15.1259 115.081 15.2673C114.743 15.4088 114.442 15.624 114.198 15.8972C113.703 16.51 113.451 17.2839 113.491 18.0707V18.2914H118.582V18.0417C118.618 17.2819 118.409 16.5304 117.988 15.8972C117.772 15.62 117.492 15.4003 117.171 15.2577C116.85 15.1151 116.499 15.0541 116.148 15.08Z" fill="white"></path><path d="M133.436 9.99255V27.2573H131.112V9.99255H124.97V7.94512H139.578V9.99255H133.436ZM146.103 27.5893C145.126 27.5893 144.24 27.4141 143.447 27.0636C142.673 26.7132 141.999 26.2152 141.427 25.5696C140.874 24.9056 140.441 24.1216 140.127 23.2178C139.832 22.2955 139.684 21.2626 139.684 20.119C139.684 18.9938 139.832 17.9701 140.127 17.0479C140.441 16.1256 140.874 15.3417 141.427 14.6961C141.999 14.0321 142.673 13.5248 143.447 13.1744C144.24 12.8239 145.126 12.6487 146.103 12.6487C147.062 12.6487 147.92 12.8239 148.676 13.1744C149.433 13.5248 150.078 14.0136 150.613 14.6408C151.148 15.2495 151.554 15.978 151.831 16.8265C152.126 17.675 152.273 18.6065 152.273 19.621V20.6724H142.008V21.3364C142.008 21.9451 142.101 22.5169 142.285 23.0518C142.488 23.5683 142.765 24.0202 143.115 24.4075C143.484 24.7949 143.927 25.0992 144.443 25.3206C144.978 25.5419 145.578 25.6526 146.242 25.6526C147.145 25.6526 147.929 25.4405 148.593 25.0162C149.276 24.592 149.802 23.9833 150.171 23.1901L151.748 24.3245C151.286 25.3021 150.567 26.0953 149.589 26.704C148.612 27.2942 147.45 27.5893 146.103 27.5893ZM146.103 14.5024C145.495 14.5024 144.941 14.6131 144.443 14.8344C143.945 15.0373 143.512 15.3325 143.143 15.7198C142.792 16.1072 142.516 16.5683 142.313 17.1032C142.11 17.6197 142.008 18.1915 142.008 18.8186V19.0123H149.894V18.7079C149.894 17.4352 149.543 16.4207 148.842 15.6645C148.16 14.8898 147.247 14.5024 146.103 14.5024ZM161.233 27.5893C160.237 27.5893 159.342 27.4141 158.549 27.0636C157.756 26.7132 157.083 26.2152 156.529 25.5696C155.994 24.924 155.579 24.1401 155.284 23.2178C155.008 22.2955 154.869 21.2626 154.869 20.119C154.869 18.9754 155.008 17.9425 155.284 17.0202C155.579 16.0979 155.994 15.314 156.529 14.6684C157.083 14.0228 157.756 13.5248 158.549 13.1744C159.342 12.8239 160.237 12.6487 161.233 12.6487C162.653 12.6487 163.788 12.9622 164.636 13.5894C165.503 14.1981 166.149 15.0004 166.573 15.9965L164.719 16.9372C164.461 16.1994 164.037 15.6276 163.446 15.2218C162.856 14.816 162.118 14.6131 161.233 14.6131C160.569 14.6131 159.988 14.7238 159.49 14.9451C158.992 15.148 158.577 15.4431 158.245 15.8305C157.913 16.1994 157.664 16.6513 157.498 17.1862C157.332 17.7027 157.249 18.2745 157.249 18.9016V21.3364C157.249 22.5907 157.581 23.6236 158.245 24.4352C158.927 25.2283 159.923 25.6249 161.233 25.6249C163.022 25.6249 164.313 24.7949 165.106 23.1348L166.711 24.2139C166.25 25.2468 165.558 26.0676 164.636 26.6763C163.732 27.285 162.598 27.5893 161.233 27.5893ZM169.836 6.78307H172.049V15.3048H172.16C172.51 14.4932 172.999 13.8476 173.626 13.368C174.272 12.8885 175.13 12.6487 176.199 12.6487C177.675 12.6487 178.837 13.1282 179.685 14.0874C180.552 15.0281 180.986 16.3654 180.986 18.0992V27.2573H178.772V18.4866C178.772 15.9227 177.693 14.6408 175.535 14.6408C175.093 14.6408 174.659 14.6961 174.235 14.8068C173.829 14.9174 173.46 15.0834 173.128 15.3048C172.796 15.5261 172.529 15.812 172.326 16.1625C172.141 16.4945 172.049 16.8911 172.049 17.3522V27.2573H169.836V6.78307Z" fill="#4DBDE4"></path><path d="M42.364 41.1968V40.277H43.6518V32.9448H42.364V32.0249H46.0433V32.9448H44.7555V40.277H46.0433V41.1968H42.364ZM54.0902 35.5991L52.9864 33.5623H52.947V41.1968H51.8695V32.0249H53.1441L56.4948 37.6227L57.5986 39.6594H57.638V32.0249H58.7155V41.1968H57.4409L54.0902 35.5991ZM67.1913 35.5991L66.0875 33.5623H66.0481V41.1968H64.9706V32.0249H66.2452L69.596 37.6227L70.6997 39.6594H70.7392V32.0249H71.8166V41.1968H70.5421L67.1913 35.5991ZM81.5014 41.3545C80.9057 41.3545 80.3669 41.2537 79.8851 41.0522C79.4121 40.842 79.0047 40.5398 78.6631 40.1456C78.3302 39.7426 78.0718 39.2477 77.8878 38.6607C77.7038 38.065 77.6119 37.3818 77.6119 36.6109C77.6119 35.84 77.7038 35.1611 77.8878 34.5741C78.0718 33.9872 78.3302 33.4923 78.6631 33.0893C79.0047 32.6863 79.4121 32.3841 79.8851 32.1826C80.3669 31.9724 80.9057 31.8673 81.5014 31.8673C82.0883 31.8673 82.6226 31.9724 83.1045 32.1826C83.5863 32.3841 83.9936 32.6863 84.3265 33.0893C84.6681 33.4923 84.9309 33.9872 85.1149 34.5741C85.2989 35.1611 85.3908 35.84 85.3908 36.6109C85.3908 37.3818 85.2989 38.065 85.1149 38.6607C84.9309 39.2477 84.6681 39.7426 84.3265 40.1456C83.9936 40.5398 83.5863 40.842 83.1045 41.0522C82.6226 41.2537 82.0883 41.3545 81.5014 41.3545ZM81.5014 40.3689C81.8956 40.3689 82.2591 40.2989 82.592 40.1587C82.9249 40.0185 83.2096 39.8171 83.4461 39.5543C83.6914 39.2915 83.8797 38.9761 84.0111 38.6082C84.1425 38.2402 84.2082 37.8285 84.2082 37.373V35.8487C84.2082 35.3932 84.1425 34.9815 84.0111 34.6136C83.8797 34.2456 83.6914 33.9303 83.4461 33.6675C83.2096 33.4047 82.9249 33.2032 82.592 33.063C82.2591 32.9229 81.8956 32.8528 81.5014 32.8528C81.1071 32.8528 80.7436 32.9229 80.4107 33.063C80.0778 33.2032 79.7888 33.4047 79.5435 33.6675C79.3069 33.9303 79.123 34.2456 78.9916 34.6136C78.8602 34.9815 78.7945 35.3932 78.7945 35.8487V37.373C78.7945 37.8285 78.8602 38.2402 78.9916 38.6082C79.123 38.9761 79.3069 39.2915 79.5435 39.5543C79.7888 39.8171 80.0778 40.0185 80.4107 40.1587C80.7436 40.2989 81.1071 40.3689 81.5014 40.3689ZM93.121 41.1968L90.0725 32.0249H91.2551L92.7663 36.6503L93.7781 40.093H93.8438L94.8818 36.6503L96.4061 32.0249H97.5493L94.4613 41.1968H93.121ZM108.053 41.1968L107.133 38.4899H103.428L102.508 41.1968H101.391L104.597 32.0249H106.003L109.209 41.1968H108.053ZM105.307 33.0499H105.241L103.69 37.5175H106.857L105.307 33.0499ZM116.767 32.9973V41.1968H115.664V32.9973H112.747V32.0249H119.685V32.9973H116.767ZM124.486 41.1968V40.277H125.774V32.9448H124.486V32.0249H128.166V32.9448H126.878V40.277H128.166V41.1968H124.486ZM137.421 41.3545C136.826 41.3545 136.287 41.2537 135.805 41.0522C135.332 40.842 134.925 40.5398 134.583 40.1456C134.25 39.7426 133.992 39.2477 133.808 38.6607C133.624 38.065 133.532 37.3818 133.532 36.6109C133.532 35.84 133.624 35.1611 133.808 34.5741C133.992 33.9872 134.25 33.4923 134.583 33.0893C134.925 32.6863 135.332 32.3841 135.805 32.1826C136.287 31.9724 136.826 31.8673 137.421 31.8673C138.008 31.8673 138.543 31.9724 139.025 32.1826C139.506 32.3841 139.914 32.6863 140.247 33.0893C140.588 33.4923 140.851 33.9872 141.035 34.5741C141.219 35.1611 141.311 35.84 141.311 36.6109C141.311 37.3818 141.219 38.065 141.035 38.6607C140.851 39.2477 140.588 39.7426 140.247 40.1456C139.914 40.5398 139.506 40.842 139.025 41.0522C138.543 41.2537 138.008 41.3545 137.421 41.3545ZM137.421 40.3689C137.816 40.3689 138.179 40.2989 138.512 40.1587C138.845 40.0185 139.13 39.8171 139.366 39.5543C139.611 39.2915 139.8 38.9761 139.931 38.6082C140.063 38.2402 140.128 37.8285 140.128 37.373V35.8487C140.128 35.3932 140.063 34.9815 139.931 34.6136C139.8 34.2456 139.611 33.9303 139.366 33.6675C139.13 33.4047 138.845 33.2032 138.512 33.063C138.179 32.9229 137.816 32.8528 137.421 32.8528C137.027 32.8528 136.664 32.9229 136.331 33.063C135.998 33.2032 135.709 33.4047 135.464 33.6675C135.227 33.9303 135.043 34.2456 134.912 34.6136C134.78 34.9815 134.715 35.3932 134.715 35.8487V37.373C134.715 37.8285 134.78 38.2402 134.912 38.6082C135.043 38.9761 135.227 39.2915 135.464 39.5543C135.709 39.8171 135.998 40.0185 136.331 40.1587C136.664 40.2989 137.027 40.3689 137.421 40.3689ZM149.327 35.5991L148.223 33.5623H148.183V41.1968H147.106V32.0249H148.38L151.731 37.6227L152.835 39.6594H152.874V32.0249H153.952V41.1968H152.677L149.327 35.5991ZM162.782 41.3545C162.038 41.3545 161.403 41.2143 160.877 40.934C160.352 40.6449 159.905 40.2507 159.537 39.7514L160.352 39.0681C160.676 39.4973 161.035 39.8258 161.429 40.0536C161.823 40.2726 162.288 40.3821 162.822 40.3821C163.479 40.3821 163.978 40.2244 164.32 39.909C164.67 39.5937 164.845 39.1732 164.845 38.6476C164.845 38.2096 164.714 37.8723 164.451 37.6358C164.188 37.3993 163.755 37.2109 163.15 37.0708L162.401 36.8999C161.56 36.7072 160.917 36.4181 160.47 36.0327C160.032 35.6385 159.813 35.0866 159.813 34.377C159.813 33.9741 159.887 33.6149 160.036 33.2995C160.185 32.9842 160.391 32.7214 160.654 32.5111C160.925 32.3009 161.245 32.1432 161.613 32.0381C161.99 31.9242 162.401 31.8673 162.848 31.8673C163.54 31.8673 164.132 31.9943 164.622 32.2483C165.121 32.5024 165.542 32.8747 165.884 33.3652L165.056 33.9697C164.802 33.6193 164.495 33.3433 164.136 33.1419C163.777 32.9404 163.33 32.8396 162.796 32.8396C162.209 32.8396 161.744 32.9667 161.403 33.2207C161.07 33.466 160.903 33.8383 160.903 34.3376C160.903 34.7756 161.044 35.1085 161.324 35.3363C161.613 35.5553 162.047 35.7305 162.625 35.8619L163.374 36.0327C164.276 36.2342 164.929 36.5408 165.332 36.9525C165.735 37.3642 165.936 37.9117 165.936 38.595C165.936 39.0155 165.862 39.3966 165.713 39.7382C165.573 40.0799 165.367 40.3689 165.095 40.6055C164.824 40.842 164.491 41.026 164.096 41.1574C163.711 41.2888 163.273 41.3545 162.782 41.3545Z" fill="white"></path><path d="M101.831 26.9379H97.731L96.1805 22.1024C96.3276 22.1328 96.477 22.1504 96.6272 22.1549C96.94 22.1549 97.2498 22.0929 97.5384 21.9724C97.8271 21.8519 98.089 21.6753 98.309 21.4529C98.529 21.2305 98.7027 20.9666 98.82 20.6766C98.9373 20.3866 98.9959 20.0762 98.9924 19.7634C99.0027 19.6384 98.9848 19.5126 98.9399 19.3955C99.323 19.6193 99.6123 19.9739 99.7546 20.3942L100.674 23.2849L101.831 26.9379Z" fill="#4DD3A0"></path><path opacity="0.7" d="M108.401 12.0189L103.592 26.9251H99.4919L100.68 23.2774L103.508 14.5366C103.758 13.7497 104.251 13.0627 104.918 12.5747C105.584 12.0867 106.387 11.8231 107.213 11.8218C107.616 11.8322 108.016 11.8985 108.401 12.0189Z" fill="#00A4CC"></path><path d="M97.7834 18.7911C97.7834 18.9054 97.7495 19.0172 97.686 19.1123C97.6224 19.2073 97.5322 19.2814 97.4265 19.3252C97.3209 19.369 97.2046 19.3804 97.0925 19.3581C96.9803 19.3358 96.8773 19.2808 96.7965 19.1999C96.7156 19.1191 96.6605 19.016 96.6382 18.9038C96.6159 18.7917 96.6273 18.6754 96.6711 18.5698C96.7149 18.4641 96.789 18.3739 96.884 18.3103C96.9791 18.2468 97.0909 18.2129 97.2052 18.2129C97.2864 18.2178 97.3662 18.2355 97.4418 18.2654C97.4943 18.2917 97.5206 18.318 97.5732 18.3443C97.6399 18.3978 97.6935 18.466 97.7299 18.5434C97.7664 18.6208 97.7847 18.7055 97.7834 18.7911Z" fill="url(#paint7_linear_23_30)"></path><path d="M95.4446 18.7916C95.4457 18.8437 95.4363 18.8954 95.4169 18.9438C95.3974 18.9921 95.3684 19.0359 95.3316 19.0727C95.2948 19.1095 95.2509 19.1385 95.2026 19.158C95.1542 19.1774 95.1025 19.1869 95.0504 19.1858H94.9979C94.9049 19.1682 94.8206 19.1196 94.7586 19.0481C94.6966 18.9766 94.6605 18.8862 94.6562 18.7916C94.6534 18.6838 94.6932 18.5791 94.767 18.5004C94.8408 18.4217 94.9426 18.3752 95.0504 18.3711C95.122 18.3672 95.1931 18.3853 95.2541 18.4229C95.3152 18.4604 95.3633 18.5158 95.3921 18.5814C95.4249 18.6467 95.4429 18.7185 95.4446 18.7916Z" fill="url(#paint8_linear_23_30)"></path></g><defs><linearGradient id="paint0_linear_23_30" x1="94.9975" y1="18.8828" x2="95.4442" y2="18.8828" gradientUnits="userSpaceOnUse"><stop stop-color="#4DD3A0"></stop><stop offset="1" stop-color="#00A4CC"></stop></linearGradient><linearGradient id="paint1_linear_23_30" x1="96.6271" y1="18.791" x2="97.7834" y2="18.791" gradientUnits="userSpaceOnUse"><stop stop-color="#4DD3A0"></stop><stop offset="1" stop-color="#00A4CC"></stop></linearGradient><linearGradient id="paint2_linear_23_30" x1="94.8929" y1="19.7632" x2="98.3356" y2="19.7632" gradientUnits="userSpaceOnUse"><stop stop-color="#4DD3A0"></stop><stop offset="1" stop-color="#00A4CC"></stop></linearGradient><linearGradient id="paint3_linear_23_30" x1="4.4177" y1="21.8266" x2="15.9416" y2="21.8266" gradientUnits="userSpaceOnUse"><stop stop-color="#00A4CC"></stop><stop offset="1" stop-color="#4DD3A0"></stop></linearGradient><linearGradient id="paint4_linear_23_30" x1="0.888045" y1="34.4415" x2="31.5283" y2="34.4415" gradientUnits="userSpaceOnUse"><stop stop-color="#00A4CC"></stop><stop offset="1" stop-color="#4DD3A0"></stop></linearGradient><linearGradient id="paint5_linear_23_30" x1="8.46181" y1="19.4555" x2="28.2693" y2="19.4555" gradientUnits="userSpaceOnUse"><stop stop-color="#00A4CC"></stop><stop offset="1" stop-color="#4DD3A0"></stop></linearGradient><linearGradient id="paint6_linear_23_30" x1="15.9367" y1="6.17451" x2="27.8076" y2="6.17451" gradientUnits="userSpaceOnUse"><stop stop-color="#00A4CC"></stop><stop offset="1" stop-color="#4DD3A0"></stop></linearGradient><linearGradient id="paint7_linear_23_30" x1="97.4628" y1="18.3311" x2="96.9687" y2="19.2141" gradientUnits="userSpaceOnUse"><stop stop-color="#00A0D8"></stop><stop offset="1" stop-color="#4DD3A0"></stop></linearGradient><linearGradient id="paint8_linear_23_30" x1="95.3605" y1="18.9782" x2="94.8402" y2="18.6339" gradientUnits="userSpaceOnUse"><stop stop-color="#00A0D8"></stop><stop offset="1" stop-color="#4DD3A0"></stop></linearGradient><clipPath id="clip0_23_30"><rect width="180.112" height="46.2639" fill="white" transform="translate(0.887962 0.660645)"></rect></clipPath></defs></svg>